<?xml version="1.0" encoding="utf-8"?>
<!-- Svg Vector Icons : http://www.sfont.cn -->
<!DOCTYPE svg PUBLIC "-//W3C//DTD SVG 1.1//EN" "http://www.w3.org/Graphics/SVG/1.1/DTD/svg11.dtd">
<svg version="1.1" xmlns="http://www.w3.org/2000/svg" xmlns:xlink="http://www.w3.org/1999/xlink" x="0px" y="0px" viewBox="0 0 1000 1000" enable-background="new 0 0 1000 1000" xml:space="preserve">
<metadata> Svg Vector Icons : http://www.sfont.cn </metadata>
<g><path d="M966.9,247.9c-14.9-36.7-36.3-69.7-63.5-98c-27.2-28.3-58.9-50.5-94.2-66.1c-36.5-16.2-75.4-24.3-115.4-24.3c-71.2,0-139.9,26.6-193.6,74.9c-53.8-48.4-122.4-74.9-193.6-74.9c-40,0-78.9,8.1-115.4,24.3c-35.3,15.5-67,37.8-94.2,66.1s-48.6,61.2-63.5,98C18,285.8,10.2,326,10.1,367.2c-0.1,2-0.1,6.2,0.2,12.3c1.6,47.5,13.4,92.6,34.8,134.2c29.1,67.1,74.2,133,133.9,196c77.1,81.3,178.5,157.2,301.2,225.4l0.3,0.2c12.1,6.8,27,6.8,39.1,0l0.3-0.2c42.2-23.5,81.9-47.9,118.9-73v-41.1h-67.1c-45.4,0-82.4-37-82.4-82.4v-34.4c0-45.4,37-82.4,82.4-82.4h67.1v-67.1c0-45.4,37-82.4,82.4-82.4h34.4c45.4,0,82.4,37,82.4,82.4V622h55.5c25.1-35.5,45.7-71.7,61.6-108.3c21.4-41.6,33.1-86.8,34.8-134.1c0.3-6.1,0.3-10.3,0.2-12.1C990.1,326,982.3,285.8,966.9,247.9z"/><path d="M755.6,503.3h-34.4c-28.4,0-51.5,23.1-51.5,51.5v98h-98c-28.4,0-51.5,23.1-51.5,51.5v34.4c0,28.4,23.1,51.5,51.5,51.5h98v50.3v47.8c0,28.4,23.1,51.5,51.5,51.5h34.4c28.4,0,51.5-23.1,51.5-51.5v-98h98c28.4,0,51.5-23.1,51.5-51.5v-34.4c0-28.4-23.1-51.5-51.5-51.5h-34.7h-63.3v-98C807.1,526.4,784.1,503.3,755.6,503.3z"/></g>
</svg>