<?xml version="1.0" encoding="utf-8"?>
<!-- Svg Vector Icons : http://www.sfont.cn -->
<!DOCTYPE svg PUBLIC "-//W3C//DTD SVG 1.1//EN" "http://www.w3.org/Graphics/SVG/1.1/DTD/svg11.dtd">
<svg version="1.1" xmlns="http://www.w3.org/2000/svg" xmlns:xlink="http://www.w3.org/1999/xlink" x="0px" y="0px" viewBox="0 0 1000 1000" enable-background="new 0 0 1000 1000" xml:space="preserve">
<metadata> Svg Vector Icons : http://www.sfont.cn </metadata>
<g><g transform="translate(0.000000,511.000000) scale(0.100000,-0.100000)"><path d="M3214.1,4899c-1048.3-82.4-1970.1-318.1-2518.1-643.9c-220.4-130.3-452.3-364.1-532.8-534.7L100,3588.2V110v-3478.3l59.4-124.6c32.6-69,93.9-164.8,134.2-214.6c321.9-387.1,1078.9-705.2,2064-866.2c528.9-88.1,814.5-111.2,1510.1-120.7c670.7-9.6,1015.7,3.8,1483.3,63.2c208.9,24.9,778,120.8,791.5,132.2c1.9,1.9-101.6,111.1-230,241.5l-235.7,237.6l-151.4-23c-764.6-118.8-1870.4-132.2-2684.9-32.6C1840.1-3954.7,931.7-3644.3,720.9-3353l-55.6,76.7v734v732.1l128.4-74.7c444.6-254.9,1268.6-471.4,2152.1-565.3c557.7-57.5,1590.6-63.2,2079.3-11.5l134.2,13.4l13.4,182.1c7.7,99.7,21.1,224.2,32.6,277.9c9.6,51.7,15.3,99.6,11.5,103.5c-3.8,3.8-139.9-5.7-300.9-19.2c-421.6-38.3-1393.2-32.6-1816.7,9.6c-394.8,38.3-906.5,122.7-1186.2,193.6c-596,151.4-1052.1,366-1199.7,567.2l-47.9,63.2v730.2v732.1L862.7,292C1453-10.8,2303.9-202.4,3367.5-275.3c419.7-28.7,1379.8-11.5,1763.1,30.7C6012.1-148.8,6730.7,31.4,7229,280.5l220.4,111.2V249.8V110h287.5h287.5v1653.8c0,927.5-7.7,1699.9-17.3,1761.2c-28.8,168.6-109.2,314.3-260.6,465.7c-149.5,151.4-277.9,241.5-519.3,364.1c-523.2,268.3-1410.5,471.4-2362.9,546.2C4565.2,4923.9,3511.2,4922,3214.1,4899z M4613.1,4345.2c1031-59.4,1870.4-239.6,2418.5-519.3c389-201.2,496.3-375.6,348.8-567.3c-184-241.5-914.1-519.3-1722.9-655.4c-981.2-164.8-2242.2-164.8-3210,0c-866.2,147.6-1621.3,452.3-1753.5,709.1c-107.3,207,103.5,417.8,632.4,626.7C2127.5,4255.1,3401.9,4414.2,4613.1,4345.2z M1247.9,2323.4c383.3-141.8,1021.4-279.8,1602.1-343c1634.7-184,3430.4,24.9,4379,504l220.4,113.1v-709.1c0-803,3.8-783.8-151.4-916c-126.5-111.2-427.4-253-758.9-362.2c-1607.9-528.9-4241-431.2-5475.2,203.1c-180.1,92-325.8,208.9-369.9,295.1c-23,44.1-28.7,178.2-28.7,772.3v716.7l197.4-101.6C970,2440.3,1144.4,2361.7,1247.9,2323.4z"/><path d="M7554.8-286.7c-856.6-78.6-1598.3-657.3-1874.2-1462.2c-88.2-256.8-115-456.1-103.5-776.1c5.8-224.2,19.2-327.7,57.5-473.4c120.7-459.9,414-895,797.2-1186.2c164.8-124.6,505.9-293.2,714.8-350.7c979.3-277.9,2035.2,176.3,2502.8,1077c444.6,852.8,287.5,1866.6-390.9,2545C8813.9-468.8,8168-231.2,7554.8-286.7z M8116.3-1162.5l70.9-65.1l5.7-385.2l7.7-385.2h356.4c387.1,0,421.6-7.7,490.6-101.6c36.4-49.8,40.2-80.5,40.2-335.4c0-197.4-7.7-300.9-26.8-345c-46-107.3-92-118.8-498.3-118.8h-362.2l-7.7-377.5c-7.7-525.1-5.7-523.2-456.1-523.2c-456.1,0-459.9,5.7-459.9,546.2v354.5h-379.4c-414,0-435,5.8-492.5,115c-21.1,42.2-28.7,124.6-28.7,335.4c0,446.5,5.7,450.4,536.6,450.4h364.1v352.6c0,544.3,3.8,548.1,465.7,548.1h300.9L8116.3-1162.5z"/></g></g>
</svg>