<?xml version="1.0" encoding="utf-8"?>
<!-- Svg Vector Icons : http://www.sfont.cn -->
<!DOCTYPE svg PUBLIC "-//W3C//DTD SVG 1.1//EN" "http://www.w3.org/Graphics/SVG/1.1/DTD/svg11.dtd">
<svg version="1.1" xmlns="http://www.w3.org/2000/svg" xmlns:xlink="http://www.w3.org/1999/xlink" x="0px" y="0px" viewBox="0 0 1000 1000" enable-background="new 0 0 1000 1000" xml:space="preserve">
<metadata> Svg Vector Icons : http://www.sfont.cn </metadata>
<g><g transform="translate(0.000000,511.000000) scale(0.100000,-0.100000)"><path d="M2566.5,3538.7C499,2800.6,182.7,2680.7,164.1,2639.3c-31-70.3-28.9-423.8,4.1-467.3c22.7-31,86.8-35.2,552-39.3l527.2-6.2l130.2-465.2c93-337,130.3-500.3,130.3-589.2c0-68.2-62-975.9-136.5-2015.8c-74.4-1040-134.4-1916.6-134.4-1947.6v-57.9h-223.3c-188.1,0-229.5-6.2-256.4-35.2C674.8-3079.4,100-4030.4,100-4071.8c0-26.9,10.3-57.9,24.8-72.4c35.1-35.2,9715.2-35.2,9750.4,0c14.5,14.5,24.8,45.5,24.8,70.3c0,41.3-578.9,1000.7-657.5,1089.6c-26.9,29-68.2,35.2-256.4,35.2h-223.3v53.7c0,29-60,901.4-134.4,1937.3C8554.1,79.8,8492,987.4,8492,1061.8c0,103.4,31,244,130.3,599.6l130.2,465.2l531.4,6.2c514.8,4.1,533.4,6.2,556.2,47.6c26.9,53.8,18.6,463.1-12.4,492.1c-33.1,31-4780.1,1718.1-4831.8,1718.1C4969,4388.5,3877.3,4006,2566.5,3538.7z M7270.1,3375.4c1248.8-444.5,2292.9-818.7,2326-829.1c49.6-18.6,55.8-31,55.8-111.6v-91H5000H348.1v91v91l324.6,115.8c2640.2,944.9,4300.4,1538.2,4312.8,1540.3C4995.9,4181.7,6023.4,3819.9,7270.1,3375.4z M2742.3,2112.1c-6.2-14.5-60-215-122-444.5l-111.6-419.7h-403.2h-403.2l-111.6,409.4c-62,223.3-115.8,423.8-122,444.5c-8.3,33.1,31,35.2,636.8,35.2C2612,2136.9,2748.5,2130.7,2742.3,2112.1z M4272.2,1661.4c99.2-355.6,130.3-496.2,130.3-599.6c0-74.4-62-982.1-136.5-2017.9c-74.4-1037.9-134.4-1908.3-134.4-1939.3v-53.7h-578.9h-578.9v57.9c0,31-64.1,949-142.7,2038.6l-142.7,1982.7l132.3,485.9c74.4,266.7,138.5,494.1,144.7,502.4c6.2,10.3,270.8,16.5,593.4,14.5l583-6.2L4272.2,1661.4z M5636.8,2110.1c-4.1-14.5-57.9-215-119.9-444.5l-113.7-417.6H5000h-403.2l-111.6,409.4c-62,223.3-115.8,423.8-122,444.5c-8.3,33.1,31,35.2,636.8,35.2C5518.9,2136.9,5643,2130.7,5636.8,2110.1z M7034.4,2120.4c4.1-8.3,68.2-233.6,142.7-500.3l132.3-485.9L7168.8-850.6c-78.6-1091.6-142.7-2009.6-142.7-2040.6v-57.9h-578.9h-578.9v68.2c-2.1,35.1-64.1,955.2-142.7,2040.6l-140.6,1974.5l132.3,485.9c74.4,266.7,138.5,492.1,144.7,502.4C5874.6,2141.1,7020,2141.1,7034.4,2120.4z M8531.3,2101.8c-6.2-20.7-60-221.2-122-444.5l-111.7-409.4h-403.2h-403.2l-111.7,419.7c-62,229.5-115.8,430-122,444.5c-6.2,18.6,130.2,24.8,636.8,24.8C8500.3,2136.9,8539.6,2134.9,8531.3,2101.8z M2626.5-881.6c74.4-1052.4,138.5-1947.6,138.5-1989l2.1-78.6h-661.6h-661.6v53.7c0,29,60,899.4,134.4,1933.1C1652.7,71.5,1712.7,946,1712.7,979.1v62l388.7-4.1l386.6-6.2L2626.5-881.6z M5523.1-937.5c76.5-1089.6,140.6-1986.9,138.5-1995.1c0-10.3-297.7-16.5-661.6-16.5c-363.9,0-661.6,6.2-661.6,16.5c-2.1,8.3,62,905.6,138.5,1995.1l138.5,1978.6H5000h384.6L5523.1-937.5z M8417.6-927.1c76.5-1083.4,138.5-1982.7,138.5-1995.1c0-39.3-1323.2-39.3-1323.2,0c-2.1,60,272.9,3913.8,279.1,3938.6c6.2,18.6,103.4,24.8,388.7,24.8h378.3L8417.6-927.1z M9360.4-3552.9l248.1-399l-2303.2-6.2c-1267.4-2.1-3341.1-2.1-4608.5,0l-2305.3,6.2l186.1,299.8c103.4,165.4,212.9,343.2,246,399l62,97.2h4112.3h4114.4L9360.4-3552.9z"/></g></g>
</svg>