<?xml version="1.0" encoding="utf-8"?>
<!-- Svg Vector Icons : http://www.sfont.cn -->
<!DOCTYPE svg PUBLIC "-//W3C//DTD SVG 1.1//EN" "http://www.w3.org/Graphics/SVG/1.1/DTD/svg11.dtd">
<svg version="1.1" xmlns="http://www.w3.org/2000/svg" xmlns:xlink="http://www.w3.org/1999/xlink" x="0px" y="0px" viewBox="0 0 1000 1000" enable-background="new 0 0 1000 1000" xml:space="preserve">
<metadata> Svg Vector Icons : http://www.sfont.cn </metadata>
<g><path d="M495,977.1c-0.2,1.2-0.9,2.5-1.9,3.5c-2.2,2.3-11.4-1.3-13.8,1c-1.6,1.5-1.5,4.1-1.5,4.1"/><path d="M487.5,983.6c0.2,1.5,0.4,2.7,0.2,3.4c-0.6,1.9-2.7,3-2.7,3"/><path d="M487.8,972.9c0,0-1,0.6-2,1.5c-0.9,0.9-1.4,3,0.2,4.8"/><path d="M487,973.6l7.7,4.5L487,973.6z"/><path d="M485.8,974.5l7.9,5.3L485.8,974.5z"/><path d="M485.1,975.9l7,5.2L485.1,975.9z"/><path d="M478,984.5l8.3,4.4L478,984.5z"/><path d="M478.8,982.6l8.4,5.2L478.8,982.6z"/><path d="M480.3,981.2l7.4,5L480.3,981.2z"/><path d="M144.7,536.1c0-7.1,0-14.3,0-21.4c10.4-74.2,25.3-127.3,67.7-163.9c101.1-87.2,317.3,5.9,459.5-14.3c-37.4-33.4-100.1-79.4-146-114c-17.6-13.2-39.5-32.1-49.9-28.5c-5.1,35.3,78.3,102.5,14.2,110.4c-31.5,3.9-55.8-48-64.1-78.4c-24.4-88.8,24.8-146.9,67.7-181.7c24.3-19.7,85.5-60.6,89.1-10.7c1.5,20.2-22.3,25.3-17.8,35.6c72.8,48.3,154.6,87.6,228,135.4c18.9-10.7,12.4-33.8,39.2-32.1c46.4,2.9,10.2,79.2,0,99.7c-38.6,78.2-85.5,121.7-195.9,121.1c-133.7-0.7-201.1-33.4-320.6-21.4c53.3,31,110.7,72.8,160.3,106.9c15.6,10.7,33.2,28.8,49.9,24.9c-3.7-32.9-20.4-76.6,14.2-81.9c42.8-6.6,44.5,84.2,42.7,128.2c-2.4,59.4-52.1,130-103.3,156.7c-61.2,31.9-76.2-38-14.2-60.6c-90.9-42.1-171.9-94.1-263.6-135.4C210.7,552.1,159.1,569.9,144.7,536.1z M525.9,87.3c-2.4,8.3-11.8,9.5-14.2,17.8c87.2,56.5,170.5,116.8,260,171c2.2-18,18.2-22.1,17.8-42.7C698,188.3,619.1,130.6,525.9,87.3z M479.6,151.4c78.2,60.7,158.9,118.9,238.7,178.1c11.4-9.9,28.2-14.5,32.1-32.1c-90.7-54.2-173.2-116.5-263.6-171C487.3,137.7,477.2,138.4,479.6,151.4z M337.1,422.1c-35.4-24.4-76.1-69.7-99.7-14.2c96.2,56.9,188.1,118.2,285,174.5c2-11.1,2.9-23.2,7.1-32.1C478.6,515,396.6,463,337.1,422.1z M205.3,479.1c71.2,34.9,156.2,79.3,228,117.6c18.5,9.9,54.8,45.7,67.7,14.2c-78.9-60.1-188.1-120.6-281.4-178.1C213.3,446.7,209.1,462.8,205.3,479.1z"/></g>
</svg>