<?xml version="1.0" encoding="utf-8"?>
<!-- Svg Vector Icons : http://www.sfont.cn -->
<!DOCTYPE svg PUBLIC "-//W3C//DTD SVG 1.1//EN" "http://www.w3.org/Graphics/SVG/1.1/DTD/svg11.dtd">
<svg version="1.1" xmlns="http://www.w3.org/2000/svg" xmlns:xlink="http://www.w3.org/1999/xlink" x="0px" y="0px" viewBox="0 0 1000 1000" enable-background="new 0 0 1000 1000" xml:space="preserve">
<metadata> Svg Vector Icons : http://www.sfont.cn </metadata>
<g><g><path d="M402,10H75.3C39.4,10,10,39.4,10,75.3V402c0,35.9,29.4,65.3,65.3,65.3H402c35.9,0,65.3-29.4,65.3-65.3V75.3C467.3,39.4,437.9,10,402,10z M402,271.3H75.3V206H402V271.3z M924.7,10H598c-35.9,0-65.3,29.4-65.3,65.3v849.3c0,35.9,29.4,65.3,65.3,65.3h326.7c35.9,0,65.3-29.4,65.3-65.3V75.3C990,39.4,960.6,10,924.7,10z M924.7,598H598v-65.3h326.7V598z M924.7,402H598v-65.3h326.7V402z M402,532.7H75.3C39.4,532.7,10,562.1,10,598v326.7c0,35.9,29.4,65.3,65.3,65.3H402c35.9,0,65.3-29.4,65.3-65.3V598C467.3,562.1,437.9,532.7,402,532.7z M402,794H271.3v130.7H206V794H75.3v-65.3H206V598h65.3v130.7H402V794z"/></g><g></g><g></g><g></g><g></g><g></g><g></g><g></g><g></g><g></g><g></g><g></g><g></g><g></g><g></g><g></g></g>
</svg>