<?xml version="1.0" encoding="utf-8"?>
<!-- Svg Vector Icons : http://www.sfont.cn -->
<!DOCTYPE svg PUBLIC "-//W3C//DTD SVG 1.1//EN" "http://www.w3.org/Graphics/SVG/1.1/DTD/svg11.dtd">
<svg version="1.1" xmlns="http://www.w3.org/2000/svg" xmlns:xlink="http://www.w3.org/1999/xlink" x="0px" y="0px" viewBox="0 0 1000 1000" enable-background="new 0 0 1000 1000" xml:space="preserve">
<metadata> Svg Vector Icons : http://www.sfont.cn </metadata>
<g><path d="M451.1,597.9H353V500h98.1V402h97.9V500H647v97.9h-98.1V696h-97.9V597.9z M990,206V794c0,108.3-87.8,196-196,196H206C97.8,990,10,902.2,10,794V206C10,97.7,97.8,10,206,10H794C902.2,10,990,97.7,990,206z M891.9,255c0-81.2-65.7-146.9-146.9-146.9H255c-81.1,0-146.9,65.8-146.9,146.9v490c0,81.2,65.7,146.9,146.9,146.9h490c81.2,0,146.9-65.7,146.9-146.9V255z M745,255h49V794H206V255H304v-49h49v49h49.1v-49h49v49H500v-49h48.9v49h49v-49H647v49h49v-49H745L745,255L745,255z M745,353H255v392h490V353z"/></g>
</svg>