<?xml version="1.0" encoding="utf-8"?>
<!-- Svg Vector Icons : http://www.sfont.cn -->
<!DOCTYPE svg PUBLIC "-//W3C//DTD SVG 1.1//EN" "http://www.w3.org/Graphics/SVG/1.1/DTD/svg11.dtd">
<svg version="1.1" xmlns="http://www.w3.org/2000/svg" xmlns:xlink="http://www.w3.org/1999/xlink" x="0px" y="0px" viewBox="0 0 1000 1000" enable-background="new 0 0 1000 1000" xml:space="preserve">
<metadata> Svg Vector Icons : http://www.sfont.cn </metadata>
<g><g><path d="M985,373.2c-5.3-7.4-13.6-11.8-22.7-11.8H832.4v-92.5c0-15.3-12.5-27.7-27.7-27.7H449v-66.9c0-15.3-12.4-27.7-27.7-27.7H184.8c-15.3,0-27.7,12.4-27.7,27.7v66.9H37.7c-15.3,0-27.7,12.4-27.7,27.7v556.9c0,0.7,0.3,1.2,0.4,2.1c0.1,1.4,0.5,2.8,0.9,4.1c0.6,2.8,1.5,5.3,2.9,7.6c0.4,0.6,0.4,1.4,0.8,2.1c0.4,0.5,1.1,0.8,1.5,1.2c1.8,2.4,4,4.1,6.5,5.8c1,0.6,1.8,1.4,2.9,1.9c3.6,1.7,7.6,2.9,11.8,2.9h766.9c5.3,0,10-1.9,14.2-4.5c1-0.5,1.7-1.1,2.7-1.8c3.9-3,7.1-6.9,8.9-11.6c0.1-0.2,0.3-0.2,0.3-0.4l157.7-436.6C991.3,390.1,990.2,380.6,985,373.2z M184.8,296.6c15.3,0,27.7-12.4,27.7-27.7V202h181v66.9c0,15.3,12.4,27.7,27.7,27.7h355.7v64.8H195.3c-11.6,0-22.1,7.3-26.1,18.3L65.5,667.2V296.6H184.8z M785.2,798h-708l137.6-381.1h708L785.2,798z M381,795.7c99.3,0,180.1-80.8,180.1-180.1c0-99.3-80.8-180.1-180.1-180.1c-99.3,0-180.1,80.8-180.1,180.1C200.8,714.9,281.6,795.7,381,795.7z M381,491c68.7,0,124.6,55.9,124.6,124.6c0,68.7-55.9,124.6-124.6,124.6c-68.7,0-124.6-55.9-124.6-124.6C256.4,547,312.2,491,381,491z M304.7,644.1c-15.3,0-27.7-12.5-27.7-27.7c0-15.3,12.4-27.7,27.7-27.7h48.5v-45.2c0-15.3,12.4-27.7,27.7-27.7c15.3,0,27.7,12.4,27.7,27.7v45.2h48.5c15.3,0,27.7,12.5,27.7,27.7c0,15.3-12.4,27.7-27.7,27.7h-48.5v51.7c0,15.4-12.4,27.7-27.7,27.7c-15.3,0-27.7-12.4-27.7-27.7v-51.7H304.7z"/></g><g></g><g></g><g></g><g></g><g></g><g></g><g></g><g></g><g></g><g></g><g></g><g></g><g></g><g></g><g></g></g>
</svg>