<?xml version="1.0" encoding="utf-8"?>
<!-- Svg Vector Icons : http://www.sfont.cn -->
<!DOCTYPE svg PUBLIC "-//W3C//DTD SVG 1.1//EN" "http://www.w3.org/Graphics/SVG/1.1/DTD/svg11.dtd">
<svg version="1.1" xmlns="http://www.w3.org/2000/svg" xmlns:xlink="http://www.w3.org/1999/xlink" x="0px" y="0px" viewBox="0 0 1000 1000" enable-background="new 0 0 1000 1000" xml:space="preserve">
<metadata> Svg Vector Icons : http://www.sfont.cn </metadata>
<g><path d="M208.9,160.6c-25.7,1.8-39-2.8-40,4.1c-0.8,5.9-0.2,34.3,0.2,40.8c0.5,6.7,0.5,6.7,13,7.2c8.9,0.4,234.1,0.9,234.1,0.9v0c96.4-0.2,213.8-0.5,222.9-0.9c12.8-0.6,12.8-0.6,13.3-7.2c0.5-6.6,1.1-34.9,0.3-40.8c-0.9-6.9-14.6-2.3-40.9-4.1c-6.3-0.4-85-87.7-109.9-87.7h-29.6l0.1-1.4c0-24.3-28.9-61.5-53.3-61.5H399c-24.3,0-53.3,37.2-53.3,61.5l0.1,1.4h-29.5C292,72.9,215.1,160.2,208.9,160.6z M404.2,47.6h10c8.6,0,16.5,12.2,20.3,25.3h-18.1h-32.4C387.6,59.7,395.5,47.6,404.2,47.6z M400.3,119.6h9h7h0h81.1c34.3,24.5,35.2,40.4,33.2,40.4c-15.9,0-64.6,0-114.2,0c0,0,0,0,0,0c-1,0-3.9,0-7,0c-3.7,0-7.8,0-9,0c-48.6,0-96.2,0-111.7,0c-2,0-1.1-15.9,32.5-40.4H400.3z"/><path d="M923.9,234.8l-24.1-24.1c-18-18-45.8-28.4-76.1-28.4c-33.4,0-64.7,12.1-85.7,33.1l-11.9,11.3L302.6,643.7c-1.6,1.2-3.2,2.7-4.7,4.6l-2.8,4.6c-0.6,1.2-1.2,2.5-1.7,3.9c-2.2,6-34,145.3-34,145.3l-21.8,91.1l0.3-0.1l-0.4,1.7l110-28l140.3-37.6l0.9-0.8L882.2,435l0.2,0.2l37.7-37.7c19.9-19.9,31.8-49.8,32.6-82C953.5,283.3,943,253.9,923.9,234.8z M726,281.1l49.9,49.9L418,685.2c-19.5-15.8-36.3-23.9-70.9-31.1L726,281.1z M289.9,841.1l6.5-27.7c7.4,5,15.6,11.9,21.8,20.9L289.9,841.1z M357.3,824.6c-12.9-26.2-35.9-42.2-51.4-50.6l20.2-84.5c49.7,7,85.3,29.1,106.2,65.9c9.7,17.1,14.1,34,16.2,45.9L357.3,824.6z M483.1,779.6c-3.3-12.5-8.4-26.9-16.4-41.5c-3.5-6.4-13.2-18.6-18.3-25.2l354.7-354.7l50.7,50.7L483.1,779.6z M892.9,370.3l-10.4,10.4L754.9,253.2l10.4-10.4c13.6-13.6,35.5-21.8,58.4-21.8c20.2,0,38,6.2,48.8,17.1l24.1,24.1C921.5,287,919.5,343.6,892.9,370.3z"/><path d="M722.5,912.9c0,14.1-11.5,25.6-25.6,25.6H124.3c-14.1,0-25.6-11.5-25.6-25.6V154c0-14.1,11.5-25.6,25.6-25.6h74.5l0.9-0.8c30-29.7-1.8-50.5-1.8-50.5c-0.1-0.1-0.1-0.1-0.2-0.1h-73.4c-42.5,0-77.1,34.6-77.1,77.1v759c0,42.5,34.6,77.1,77.1,77.1h572.5c42.5,0,77.1-34.6,77.1-77.1V570l-51.4,51.4V912.9z"/><path d="M613.8,128.3h83.1c14.1,0,25.6,11.5,25.6,25.6v48c0,0,3.7-3.7,3.7-3.7c14.1-13.9,29.4-21.8,47.7-29.3v-15c0-42.5-34.6-77.1-77.1-77.1h-82.7c-0.1,0-0.2,0.1-0.2,0.1C584.5,103.9,611.2,126.3,613.8,128.3z"/></g>
</svg>