<?xml version="1.0" encoding="utf-8"?>
<!-- Svg Vector Icons : http://www.sfont.cn -->
<!DOCTYPE svg PUBLIC "-//W3C//DTD SVG 1.1//EN" "http://www.w3.org/Graphics/SVG/1.1/DTD/svg11.dtd">
<svg version="1.1" xmlns="http://www.w3.org/2000/svg" xmlns:xlink="http://www.w3.org/1999/xlink" x="0px" y="0px" viewBox="0 0 1000 1000" enable-background="new 0 0 1000 1000" xml:space="preserve">
<metadata> Svg Vector Icons : http://www.sfont.cn </metadata>
<g><path d="M943.8,292.2c0-92.8-75.5-168.3-168.3-168.3h-46.8v30.6h46.8c75.9,0,137.7,61.8,137.7,137.7L913,470.3h30.6L943.8,292.2z"/><path d="M245,426.8c0,11-9,19.9-19.9,19.9c-11,0-20-8.9-20-19.9c0-11,9-20,20-20C236.1,406.8,245,415.8,245,426.8"/><path d="M354.6,426.8c0,11-8.9,19.9-19.9,19.9c-11,0-19.9-8.9-19.9-19.9c0-11,8.9-20,19.9-20C345.7,406.8,354.6,415.8,354.6,426.8"/><path d="M459.5,426.8c0,11-8.9,19.9-19.9,19.9c-11,0-19.9-8.9-19.9-19.9c0-11,8.9-20,19.9-20C450.5,406.8,459.5,415.8,459.5,426.8"/><path d="M152.1,546.3c0,11-8.9,19.9-19.9,19.9c-11,0-19.9-8.9-19.9-19.9c0-11,9-19.9,19.9-19.9C143.2,526.4,152.1,535.4,152.1,546.3"/><path d="M245,546.3c0,11-9,19.9-19.9,19.9c-11,0-20-8.9-20-19.9c0-11,9-19.9,20-19.9C236.1,526.4,245,535.4,245,546.3"/><path d="M152.1,665.9c0,11-8.9,19.9-19.9,19.9c-11,0-19.9-8.9-19.9-19.9s9-20,19.9-20C143.2,645.9,152.1,654.9,152.1,665.9"/><path d="M245,665.9c0,11-9,19.9-19.9,19.9c-11,0-20-8.9-20-19.9s9-20,20-20C236.1,645.9,245,654.9,245,665.9"/><path d="M354.6,665.9c0,11-8.9,19.9-19.9,19.9c-11,0-19.9-8.9-19.9-19.9s8.9-20,19.9-20C345.7,645.9,354.6,654.9,354.6,665.9"/><path d="M152.1,785.4c0,11-8.9,19.9-19.9,19.9c-11,0-19.9-8.9-19.9-19.9s9-19.9,19.9-19.9C143.2,765.5,152.1,774.4,152.1,785.4"/><path d="M245,785.4c0,11-9,19.9-19.9,19.9c-11,0-20-8.9-20-19.9s9-19.9,20-19.9C236.1,765.5,245,774.4,245,785.4"/><path d="M354.6,785.4c0,11-8.9,19.9-19.9,19.9c-11,0-19.9-8.9-19.9-19.9s8.9-19.9,19.9-19.9C345.7,765.5,354.6,774.4,354.6,785.4"/><path d="M334.7,486.6c-33.1,0-59.8,26.7-59.8,59.7c0,33,26.7,59.8,59.8,59.8c33,0,59.7-26.8,59.7-59.8C394.4,513.3,367.7,486.6,334.7,486.6 M334.7,566.2c-11,0-19.9-8.9-19.9-19.9c0-11,8.9-19.9,19.9-19.9c11,0,19.9,8.9,19.9,19.9C354.6,557.3,345.7,566.2,334.7,566.2"/><path d="M325.8,118.9H594v30.6H325.8V118.9z"/><path d="M41.1,302.5h874.1v30.6H41.1V302.5L41.1,302.5z"/><path d="M258.8,41.4c18.5,0,33.6,15.1,33.6,33.6v102.1c0,18.5-15.1,33.6-33.6,33.6c-18.5,0-33.6-15.1-33.6-33.6V75C225.2,56.5,240.2,41.4,258.8,41.4 M258.8,10.8c-35.4,0-64.2,28.7-64.2,64.2v102.1c0,35.4,28.7,64.2,64.2,64.2c35.5,0,64.2-28.7,64.2-64.2V75C323,39.5,294.2,10.8,258.8,10.8L258.8,10.8z"/><path d="M660.8,41.4c18.5,0,33.6,15.1,33.6,33.6v102.1c0,18.5-15.1,33.6-33.6,33.6c-18.5,0-33.6-15.1-33.6-33.6V75C627.2,56.5,642.3,41.4,660.8,41.4 M660.8,10.8c-35.4,0-64.2,28.7-64.2,64.2v102.1c0,35.4,28.7,64.2,64.2,64.2c35.5,0,64.2-28.7,64.2-64.2V75C725,39.5,696.3,10.8,660.8,10.8L660.8,10.8z"/><path d="M178.3,930.3c-75.9,0-137.7-61.8-137.7-137.7L41,287.2c0-75.9,61.8-137.7,137.7-137.7h13v-30.6h-13c-92.8,0-168.3,75.5-168.3,168.3L10,792.6c0,92.8,75.5,168.3,168.3,168.3h260.6v-30.6H178.3z"/><path d="M440.8,694.9c-10.6,151.5,103.5,282.9,255,293.6c151.5,10.6,282.9-103.5,293.6-255c10.6-151.3-103.5-282.8-255-293.5L715,714.2L440.8,694.9z"/><path d="M411.5,665.2l272.6,19.2L499.4,482.8C449.7,528.6,416.6,592.6,411.5,665.2z"/><path d="M720,385.7c-78.7-5.5-151.9,22.9-205.6,72.6l184.8,201.6l1.6,0.1L720,385.7z"/></g>
</svg>