<?xml version="1.0" encoding="utf-8"?>
<!-- Svg Vector Icons : http://www.sfont.cn -->
<!DOCTYPE svg PUBLIC "-//W3C//DTD SVG 1.1//EN" "http://www.w3.org/Graphics/SVG/1.1/DTD/svg11.dtd">
<svg version="1.1" xmlns="http://www.w3.org/2000/svg" xmlns:xlink="http://www.w3.org/1999/xlink" x="0px" y="0px" viewBox="0 0 1000 1000" enable-background="new 0 0 1000 1000" xml:space="preserve">
<metadata> Svg Vector Icons : http://www.sfont.cn </metadata>
<g><path d="M916.8,723.8c-60.5-104.6-157.2-182.1-272.3-218.3c-9.1-2.9-19-0.4-25.7,6.3c-2,2-4.2,4-6.3,6c-0.6,0.4-1.1,1-1.6,1.5c-41,39.2-88,70.9-110.4,85.1c-24-16-75.4-51.5-111.4-85.3c-0.4-0.4-0.9-0.9-1.4-1.3c-2.1-2-4.4-4.1-6.4-6.1c-6.7-6.7-16.6-9.2-25.7-6.3C240.4,541.7,143.7,619.2,83.2,723.8c-4.6,7.9-4.6,17.7,0,25.6C169.1,897.8,328.8,990,500,990c171.2,0,330.9-92.2,416.8-240.6C921.4,741.4,921.4,731.7,916.8,723.8z M155.3,765.7c-7-9.4-13.9-19.1-20.2-29.1c29.6-47.4,68-87.8,112.5-120c-27,31.7-51.8,68.3-73.4,109.7C167.5,739,161.3,752.2,155.3,765.7z M515.3,938.4v-169c0-8.5-6.9-15.3-15.3-15.3c-8.5,0-15.3,6.9-15.3,15.3v169c-118.7-4.3-230-58-307.5-145.9c7.6-17.9,15.5-35.5,24.2-52c42.1-80.7,95.6-142.6,155.9-181c48.1,44.3,115.7,88.2,127.4,95.7v46c0,8.5,6.9,15.3,15.3,15.3c8.5,0,15.3-6.8,15.3-15.3v-45.9c12.8-7.6,73.3-44.8,127.5-95.7c61.2,39,115.3,102.1,157.8,184.6c7.9,15.4,15.3,31.7,22.3,48.3C745.3,880.4,634.1,934.1,515.3,938.4z M844.8,765.6c-5.4-12.1-11-24-16.9-35.5c-22.1-43.1-47.6-80.9-75.4-113.6c44.4,32.2,82.8,72.6,112.4,120C858.6,746.6,851.8,756.2,844.8,765.6z"/><path d="M500,514.5c111.4,0,202-90.6,202-202V212c0-111.4-90.6-202-202-202c-111.4,0-202,90.6-202,202v100.6C298,423.9,388.6,514.5,500,514.5z M349.1,212c0-83.2,67.7-150.9,150.9-150.9c83.2,0,150.9,67.7,150.9,150.9v100.6c0,83.2-67.7,150.9-150.9,150.9c-83.2,0-150.9-67.7-150.9-150.9V212z"/><path d="M713.6,707h-15.8v-15.8c0-16.9-13.7-30.6-30.6-30.6l-47.2,0c0,0,0,0,0,0c-8.1,0-15.9,3.2-21.7,9c-5.8,5.8-9,13.5-9,21.7V707h-15.8c-16.9,0-30.6,13.7-30.6,30.6v47.2c0,16.9,13.7,30.6,30.6,30.6h15.8v15.8c0,16.9,13.7,30.6,30.7,30.6h47.2c16.9,0,30.6-13.7,30.6-30.6v-15.8h15.8c16.9,0,30.6-13.7,30.6-30.6v-47.2C744.3,720.7,730.5,707,713.6,707z M713.6,784.8h-46.4v46.5H620v-46.5h-46.4v-47.2H620v-46.4l47.2,0v46.4h46.4V784.8z"/></g>
</svg>