<?xml version="1.0" encoding="utf-8"?>
<!-- Svg Vector Icons : http://www.sfont.cn -->
<!DOCTYPE svg PUBLIC "-//W3C//DTD SVG 1.1//EN" "http://www.w3.org/Graphics/SVG/1.1/DTD/svg11.dtd">
<svg version="1.1" xmlns="http://www.w3.org/2000/svg" xmlns:xlink="http://www.w3.org/1999/xlink" x="0px" y="0px" viewBox="0 0 1000 1000" enable-background="new 0 0 1000 1000" xml:space="preserve">
<metadata> Svg Vector Icons : http://www.sfont.cn </metadata>
<g><g transform="translate(0.000000,511.000000) scale(0.100000,-0.100000)"><path d="M2621.2,4697.4c-36.9-26.6-88.1-73.8-110.7-104.5l-43-57.4l-6.1-4530l-4.1-4528H4999h2541.7l-4.1,4528l-6.1,4530l-43,57.4c-22.6,30.7-73.8,77.9-110.7,104.5l-67.6,45.1H4999H2688.9L2621.2,4697.4z M7192.2,110v-4284H4999H2805.7V110v4284H4999h2193.3V110z"/><path d="M3502.6,3389.7v-389.5h174.2h174.2v389.5v389.5h-174.2h-174.2V3389.7z"/><path d="M4814.5,3389.7v-389.5h174.2H5163v389.5v389.5h-174.2h-174.2V3389.7z"/><path d="M6126.4,3389.7v-389.5h174.2h174.2v389.5v389.5h-174.2h-174.2V3389.7z"/><path d="M3502.6,2077.8v-389.5h174.2h174.2v389.5v389.5h-174.2h-174.2V2077.8z"/><path d="M4814.5,2077.8v-389.5h174.2H5163v389.5v389.5h-174.2h-174.2V2077.8z"/><path d="M6126.4,2077.8v-389.5h174.2h174.2v389.5v389.5h-174.2h-174.2V2077.8z"/><path d="M3502.6,765.9V376.5h174.2h174.2v389.5v389.5h-174.2h-174.2V765.9z"/><path d="M4814.5,765.9V376.5h174.2H5163v389.5v389.5h-174.2h-174.2V765.9z"/><path d="M6126.4,765.9V376.5h174.2h174.2v389.5v389.5h-174.2h-174.2V765.9z"/><path d="M3502.6-545.9v-389.5h174.2h174.2v389.5v389.5h-174.2h-174.2V-545.9z"/><path d="M4814.5-545.9v-389.5h174.2H5163v389.5v389.5h-174.2h-174.2V-545.9z"/><path d="M6126.4-545.9v-389.5h174.2h174.2v389.5v389.5h-174.2h-174.2V-545.9z"/><path d="M3502.6-1857.8v-389.5h174.2h174.2v389.5v389.5h-174.2h-174.2V-1857.8z"/><path d="M4814.5-1857.8v-389.5h174.2H5163v389.5v389.5h-174.2h-174.2V-1857.8z"/><path d="M6126.4-1857.8v-389.5h174.2h174.2v389.5v389.5h-174.2h-174.2V-1857.8z"/><path d="M3502.6-3169.6v-389.5h174.2h174.2v389.5v389.5h-174.2h-174.2V-3169.6z"/><path d="M4814.5-3169.6v-389.5h174.2H5163v389.5v389.5h-174.2h-174.2V-3169.6z"/><path d="M6126.4-3169.6v-389.5h174.2h174.2v389.5v389.5h-174.2h-174.2V-3169.6z"/><path d="M7889.2,3256.4v-174.2h90.2h90.2l725.6-729.7c397.6-399.7,725.6-735.9,729.7-744.1c2.1-8.2-47.1-16.4-112.7-14.4c-65.6,0-434.6,0-819.9-4.1l-703.1-4.1v-174.2v-174.2h696.9H9283v-2705.7V-4174h-696.9h-696.9v-174.2v-174.2h731.8h729.7l88.1,51.3c53.3,30.7,110.7,88.1,141.4,141.4l51.2,88.1v2734.4v2736.5l67.6,24.6c36.9,14.4,94.3,53.3,129.1,88.1c55.3,57.4,59.4,75.8,65.6,239.8l6.1,178.3l-805.6,803.5c-545.2,543.2-830.2,813.8-881.4,836.3c-43,16.4-133.2,30.7-200.9,30.7h-123V3256.4z"/><path d="M1411.9,1380.9v-307.5h-147.6c-270.6,0-266.5,2.1-737.9-467.3L100,183.8V13.7c0-159.9,4.1-172.2,63.5-241.9c34.8-39,92.2-80,129.1-88.1l63.5-16.4l10.2-1967.8c10.2-2125.6,6.1-2025.2,114.8-2121.5c112.7-98.4,127.1-100.4,899.9-100.4h727.7v174.2v174.2h-696.9H714.9v1926.8v1926.8h696.9h696.9v174.2V28h-834.3H438.2l348.5,348.5l348.5,348.5h485.8h487.8v174.2v174.2h-174.2h-174.2v307.5v307.5h-174.2h-174.2V1380.9z"/><path d="M8237.6,120.2v-522.7h174.2h174.2v522.7v522.7h-174.2h-174.2V120.2z"/><path d="M8237.6-1447.8v-535l170.1,6.2l168.1,6.1l6.1,528.8l4.1,526.8h-174.2h-174.2V-1447.8z"/><path d="M1411.9-1458.1v-522.7h174.2h174.2v522.7v522.7h-174.2h-174.2V-1458.1z"/><path d="M8237.6-3015.9v-522.7h174.2h174.2v522.7v522.7h-174.2h-174.2V-3015.9z"/><path d="M1411.9-3036.4v-522.7h174.2h174.2v522.7v522.7h-174.2h-174.2V-3036.4z"/></g></g>
</svg>