<?xml version="1.0" encoding="utf-8"?>
<!-- Svg Vector Icons : http://www.sfont.cn -->
<!DOCTYPE svg PUBLIC "-//W3C//DTD SVG 1.1//EN" "http://www.w3.org/Graphics/SVG/1.1/DTD/svg11.dtd">
<svg version="1.1" xmlns="http://www.w3.org/2000/svg" xmlns:xlink="http://www.w3.org/1999/xlink" x="0px" y="0px" viewBox="0 0 1000 1000" enable-background="new 0 0 1000 1000" xml:space="preserve">
<metadata> Svg Vector Icons : http://www.sfont.cn </metadata>
<g><path d="M966.7,558.3c-6,0-11.9-2.3-16.5-6.8L500,101.3L49.8,551.5c-9.1,9.1-23.9,9.1-33,0c-9.1-9.1-9.1-23.9,0-33L483.5,51.8c9.1-9.1,23.9-9.1,33,0l466.7,466.7c9.1,9.1,9.1,23.9,0,33C978.6,556.1,972.6,558.3,966.7,558.3z M780,955H616.7c-12.9,0-23.3-10.4-23.3-23.3s10.4-23.3,23.3-23.3H780c25.7,0,46.7-20.9,46.7-46.7V605c0-12.9,10.4-23.3,23.3-23.3s23.3,10.4,23.3,23.3v256.7C873.3,913.1,831.5,955,780,955z M383.3,955H220c-51.5,0-93.3-41.9-93.3-93.3V418.3c0-12.9,10.4-23.3,23.3-23.3c12.9,0,23.3,10.4,23.3,23.3v443.3c0,25.7,20.9,46.7,46.7,46.7h140v-210c0-12.9,10.4-23.3,23.3-23.3h233.3c12.9,0,23.3,10.4,23.3,23.3s-10.4,23.3-23.3,23.3h-210v210C406.7,944.6,396.2,955,383.3,955z"/></g>
</svg>