<?xml version="1.0" encoding="utf-8"?>
<!-- Svg Vector Icons : http://www.sfont.cn -->
<!DOCTYPE svg PUBLIC "-//W3C//DTD SVG 1.1//EN" "http://www.w3.org/Graphics/SVG/1.1/DTD/svg11.dtd">
<svg version="1.1" xmlns="http://www.w3.org/2000/svg" xmlns:xlink="http://www.w3.org/1999/xlink" x="0px" y="0px" viewBox="0 0 1000 1000" enable-background="new 0 0 1000 1000" xml:space="preserve">
<metadata> Svg Vector Icons : http://www.sfont.cn </metadata>
<g><path d="M500,10C229.4,10,10,229.4,10,500c0,270.6,219.4,490,490,490c270.6,0,490-219.4,490-490C990,229.4,770.6,10,500,10z M500,936.4C259,936.4,63.6,741,63.6,500C63.6,259,259,63.6,500,63.6C741,63.6,936.4,259,936.4,500C936.4,741,741,936.4,500,936.4z"/><path d="M651.8,525.3c13.7,0,25.7-7.3,25.7-18c0-10.7-12-18.5-25.7-18.5H546.6l110.1-150.2v0.6c6.4-8.5,2.4-19.7-11.3-23.6c-12.1-5.6-28.1-1.7-34.5,6.7L500.8,472.4L390,322.8c-6.4-7.9-21.7-11.2-33.7-7.3c-14.5,5.1-19.3,15.7-12.1,24.2l110.1,149H347.4c-13.6,0-24.9,7.9-24.9,17.4c0,11.8,11.3,19.1,24.9,19.1h126.1v56.2H347.4c-13.6,0-24.9,7.9-24.9,18c0,10.7,11.3,19.1,24.9,19.1h126.1v65.2c0,9.6,11.3,18,25.7,18c16.1,0,26.5-8.5,26.5-18v-65.2h126.1c13.7,0,25.7-8.4,25.7-18c0-11.3-12-19.1-25.7-19.1H525.7v-56.2L651.8,525.3L651.8,525.3z"/></g>
</svg>