<?xml version="1.0" encoding="utf-8"?>
<!-- Svg Vector Icons : http://www.sfont.cn -->
<!DOCTYPE svg PUBLIC "-//W3C//DTD SVG 1.1//EN" "http://www.w3.org/Graphics/SVG/1.1/DTD/svg11.dtd">
<svg version="1.1" xmlns="http://www.w3.org/2000/svg" xmlns:xlink="http://www.w3.org/1999/xlink" x="0px" y="0px" viewBox="0 0 1000 1000" enable-background="new 0 0 1000 1000" xml:space="preserve">
<metadata> Svg Vector Icons : http://www.sfont.cn </metadata>
<g><path d="M990,622.5L806.3,806.3L622.5,622.5H745V300.9c0-67.4-23.3-122.5-91.9-122.5s-91.9,55.1-91.9,122.5V500v183.8c0,135.3-77.7,245-214.4,245s-214.4-109.7-214.4-245V377.5H10l183.8-183.8l183.8,183.8H255v321.6c0,67.4,23.3,122.5,91.9,122.5s91.9-55.1,91.9-122.5V500V316.3c0-135.3,77.7-245,214.4-245s214.4,109.7,214.4,245v306.3H990z"/></g>
</svg>