<?xml version="1.0" encoding="utf-8"?>
<!-- Svg Vector Icons : http://www.sfont.cn -->
<!DOCTYPE svg PUBLIC "-//W3C//DTD SVG 1.1//EN" "http://www.w3.org/Graphics/SVG/1.1/DTD/svg11.dtd">
<svg version="1.1" xmlns="http://www.w3.org/2000/svg" xmlns:xlink="http://www.w3.org/1999/xlink" x="0px" y="0px" viewBox="0 0 1000 1000" enable-background="new 0 0 1000 1000" xml:space="preserve">
<metadata> Svg Vector Icons : http://www.sfont.cn </metadata>
<g><path d="M682.3,990H317.7C209.8,990,122,901.7,122,793.2V206.8C122,98.3,209.8,10,317.7,10h364.6C790.2,10,878,98.3,878,206.8v586.4C878,901.7,790.2,990,682.3,990z M317.7,41.2c-90.7,0-164.5,74.3-164.5,165.6v586.4c0,91.3,73.8,165.6,164.5,165.6h364.6c90.7,0,164.5-74.3,164.5-165.6V206.8c0-91.3-73.8-165.6-164.5-165.6H317.7z"/><path d="M321.6,335.6c13.3,0,26.7,0,40,0c31.4,0,62.8,0,94.2,0c36.6,0,73.1,0,109.7,0c28.8,0,57.6,0,86.5,0c8.8,0,17.6,0,26.4,0c8.5,0,15.6-7.1,15.6-15.6s-7.1-15.6-15.6-15.6c-13.3,0-26.7,0-40,0c-31.4,0-62.8,0-94.2,0c-36.6,0-73.1,0-109.7,0c-28.8,0-57.6,0-86.5,0c-8.8,0-17.6,0-26.4,0c-8.5,0-15.6,7.1-15.6,15.6S313.1,335.6,321.6,335.6L321.6,335.6z"/><path d="M321.6,515.6c13.3,0,26.7,0,40,0c31.4,0,62.8,0,94.2,0c36.6,0,73.1,0,109.7,0c28.8,0,57.6,0,86.5,0c8.8,0,17.6,0,26.4,0c8.5,0,15.6-7.1,15.6-15.6c0-8.5-7.1-15.6-15.6-15.6c-13.3,0-26.7,0-40,0c-31.4,0-62.8,0-94.2,0c-36.6,0-73.1,0-109.7,0c-28.8,0-57.6,0-86.5,0c-8.8,0-17.6,0-26.4,0c-8.5,0-15.6,7.1-15.6,15.6C306,508.5,313.1,515.6,321.6,515.6L321.6,515.6z"/><path d="M321.6,695.6c13.3,0,26.7,0,40,0c31.4,0,62.8,0,94.2,0c36.6,0,73.1,0,109.7,0c28.8,0,57.6,0,86.5,0c8.8,0,17.6,0,26.4,0c8.5,0,15.6-7.1,15.6-15.6c0-8.5-7.1-15.6-15.6-15.6c-13.3,0-26.7,0-40,0c-31.4,0-62.8,0-94.2,0c-36.6,0-73.1,0-109.7,0c-28.8,0-57.6,0-86.5,0c-8.8,0-17.6,0-26.4,0c-8.5,0-15.6,7.1-15.6,15.6C306,688.5,313.1,695.6,321.6,695.6L321.6,695.6z"/></g>
</svg>