<?xml version="1.0" encoding="utf-8"?>
<!-- Svg Vector Icons : http://www.sfont.cn -->
<!DOCTYPE svg PUBLIC "-//W3C//DTD SVG 1.1//EN" "http://www.w3.org/Graphics/SVG/1.1/DTD/svg11.dtd">
<svg version="1.1" xmlns="http://www.w3.org/2000/svg" xmlns:xlink="http://www.w3.org/1999/xlink" x="0px" y="0px" viewBox="0 0 1000 1000" enable-background="new 0 0 1000 1000" xml:space="preserve">
<metadata> Svg Vector Icons : http://www.sfont.cn </metadata>
<g><path d="M800.1,641.4l-6.1,12.2l7.6,11.3l74.8,110.9l3.1-29.7l-133,129.7l28.2-3.3l-122.1-72.7l-10.1-6l-10.8,4.5c-7.7,3.2-15.6,6.2-23.5,8.8l-12.7,4.2l-2.8,13.1L566,950.2l22.8-18.5H400.7l22.6,17.7l-32.6-131.8l-2.9-11.8l-11.3-4.4c-7-2.7-14-5.7-20.9-8.9l-11.6-5.5l-10.8,6.9l-114.7,73.5l28.9,2.9l-133-129.7l3.5,29.1l74.6-119l6.6-10.5l-5.1-11.4c-3.5-7.9-6.7-15.9-9.6-24.1l-4.4-12.5l-13-2.6l-129.1-26l18.7,22.9V403.1l-18,22.7L173.9,394l11.7-2.8l4.5-11.1c3.3-8,6.9-16,10.8-23.7l6.2-12.1l-7.5-11.3l-70.3-105.9l-3,29.5l132.2-130.9l-28.5,3.4l117.5,71.1l10.1,6.1l10.9-4.6c6.3-2.6,12.8-5.1,19.3-7.4l11.9-4.2l3-12.3l31.5-127.3l-22.6,17.7h188.1L577,49.8l27.6,130.1l2.7,12.5l12,4.5c9.8,3.6,19.3,7.7,28.7,12.2l11.6,5.6l10.9-6.9l108.6-68.4l-28.6-2.9l134.3,128.9l-3.5-29.4l-73,114.6l-6.7,10.5l5,11.4c3.4,7.8,6.6,15.9,9.4,24l4.2,12.1l12.5,2.9l128.6,30.3l-18-22.7v183.4l18.7-22.9l-135.7,27.4l-12.2,2.5l-4.8,11.5C806.6,627.9,803.5,634.7,800.1,641.4z M830.9,630l4.6,22.9l135.7-27.4l18.7-3.8v-19.1V419.2v-18.5l-18-4.2l-128.6-30.3l-5.3,22.7l22.1-7.6c-3.2-9.3-6.8-18.5-10.8-27.5l-21.4,9.4l19.7,12.5l73-114.6L931,245l-13.8-13.2L782.9,102.9l-13.2-12.6l-15.4,9.7l-108.6,68.4l12.4,19.7l10.1-21c-10.6-5.1-21.6-9.8-32.7-13.9l-8.2,21.9l22.8-4.8L622.7,40.2l-3.9-18.5h-18.9H411.7h-18.3l-4.4,17.7l-31.5,127.3l22.6,5.6l-7.7-22c-7.4,2.6-14.7,5.4-21.9,8.4l9,21.5l12.1-20L254.2,89.2l-15.6-9.4l-12.9,12.8L93.5,223.4l-13.6,13.5l10.6,16l70.3,105.9l19.4-12.9l-20.8-10.6c-4.5,8.9-8.7,18-12.4,27.2l21.6,8.8l-5.3-22.7L28,380.4l-18,4.2v18.5v183.4v19.1l18.7,3.8l129.1,26l4.6-22.9l-22,7.7c3.3,9.3,6.9,18.6,11,27.6l21.3-9.5L152.9,626l-74.6,119l-10,16l13.5,13.1l133,129.7l13.3,12.9l15.6-10l114.7-73.5l-12.6-19.6l-9.9,21.1c7.8,3.7,15.7,7,23.8,10.2l8.5-21.7l-22.6,5.6l32.6,131.8l4.4,17.7h18.3h188.1h18.9l3.9-18.5l26.7-125.9l-22.8-4.8l7.4,22.1c9-3,17.9-6.4,26.7-10l-9-21.5l-11.9,20l122.1,72.7l15.4,9.2l12.8-12.5l133-129.7l13.9-13.6l-10.9-16.1l-74.8-110.9l-19.3,13l20.9,10.4c3.8-7.7,7.4-15.4,10.6-23.3L830.9,630z"/><path d="M710,500c0-109.5-88.8-198.3-198.3-198.3S313.3,390.5,313.3,500c0,109.5,88.8,198.3,198.3,198.3c28.1,0,55.3-5.8,80.5-17c11.8-5.2,17.1-19,11.9-30.8c-5.2-11.8-19-17.1-30.8-11.8c-19.2,8.5-40,13-61.5,13C427.9,651.7,360,583.8,360,500c0-83.8,67.9-151.7,151.7-151.7c83.8,0,151.7,67.9,151.7,151.7c0,11.1-1.2,22-3.5,32.6c-2.8,12.6,5.2,25,17.8,27.8c12.6,2.8,25-5.2,27.8-17.8C708.5,528.7,710,514.4,710,500z"/></g>
</svg>