<?xml version="1.0" encoding="utf-8"?>
<!-- Svg Vector Icons : http://www.sfont.cn -->
<!DOCTYPE svg PUBLIC "-//W3C//DTD SVG 1.1//EN" "http://www.w3.org/Graphics/SVG/1.1/DTD/svg11.dtd">
<svg version="1.1" xmlns="http://www.w3.org/2000/svg" xmlns:xlink="http://www.w3.org/1999/xlink" x="0px" y="0px" viewBox="0 0 1000 1000" enable-background="new 0 0 1000 1000" xml:space="preserve">
<metadata> Svg Vector Icons : http://www.sfont.cn </metadata>
<g><path d="M500,990c-61,0-120.2-12-176-35.5c-53.8-22.8-102.2-55.4-143.7-96.9c-41.5-41.5-74.1-89.9-96.9-143.7c-23.6-55.8-35.5-115-35.5-176c0-73,17.9-145.6,51.8-209.8c32.7-62,80.2-116.5,137.5-157.5c15.9-11.4,38-7.7,49.3,8.2c11.4,15.9,7.7,38-8.2,49.3c-48.4,34.6-88.5,80.6-116.1,133c-28.9,54.9-43.6,114.4-43.6,176.9c0,101.9,39.7,197.6,111.7,269.7c72,72,167.8,111.7,269.6,111.7c101.9,0,197.6-39.7,269.7-111.7s111.7-167.8,111.7-269.7c0-62.5-14.7-122-43.6-176.9c-27.6-52.4-67.8-98.4-116.2-133c-15.9-11.4-19.5-33.5-8.2-49.3c11.4-15.9,33.5-19.5,49.3-8.2c57.3,41,104.8,95.5,137.5,157.5c33.9,64.3,51.8,136.8,51.8,209.8c0,61-12,120.2-35.5,176c-22.8,53.8-55.4,102.2-96.9,143.7c-41.5,41.5-89.9,74.1-143.7,96.9C620.2,978,561,990,500,990z"/><path d="M510.6,499.4c-19.5,0-35.4-15.8-35.4-35.4V45.4c0-19.5,15.8-35.4,35.4-35.4c19.5,0,35.4,15.8,35.4,35.4v418.7C546,483.6,530.2,499.4,510.6,499.4z"/></g>
</svg>