<?xml version="1.0" encoding="utf-8"?>
<!-- Svg Vector Icons : http://www.sfont.cn -->
<!DOCTYPE svg PUBLIC "-//W3C//DTD SVG 1.1//EN" "http://www.w3.org/Graphics/SVG/1.1/DTD/svg11.dtd">
<svg version="1.1" xmlns="http://www.w3.org/2000/svg" xmlns:xlink="http://www.w3.org/1999/xlink" x="0px" y="0px" viewBox="0 0 1000 1000" enable-background="new 0 0 1000 1000" xml:space="preserve">
<metadata> Svg Vector Icons : http://www.sfont.cn </metadata>
<g><path d="M80,571.1v209.8c0,38.5,69.9,69.9,69.9,69.9h769.1c0,0,70.9-11.4,70.9,20.3c0,31.7-33.7,48.7-33.7,48.7l-845.9-1.2C9,918.7,10,806.6,10,806.6V122.2c0-34,49.7-39.7,49.7-39.7c31.7,0,20.3,69,20.3,69v349.6L80,571.1z"/><path d="M810.8,364.3v394.3c0,12,10,21.9,22.2,21.9h133c12.2,0,22.2-9.9,22.2-21.9V364.3c0-12.1-10-21.9-22.2-21.9H833C820.8,342.4,810.8,352.3,810.8,364.3z M833,561.5h133v175.2H833V561.5z M589.1,276.7v481.9c0,12,10,21.9,22.2,21.9h133c12.2,0,22.2-9.9,22.2-21.9V276.7c0-12.1-10-21.9-22.2-21.9h-133C599,254.8,589.1,264.7,589.1,276.7z M611.2,517.7h133v219h-133V517.7z M150.3,189.1v569.5c0,12,10,21.9,22.2,21.9h133c12.2,0,22.2-9.9,22.2-21.9V189.1c0-12.1-10-21.9-22.2-21.9h-133C160.3,167.2,150.3,177,150.3,189.1z M172.5,736.7V473.9h133v262.9H172.5L172.5,736.7z"/><path d="M375.6,105.1v650.4c0,13.7,10,25,22.2,25h133c12.2,0,22.2-11.3,22.2-25V105.1c0-13.8-10-25-22.2-25h-133C385.5,80.1,375.6,91.4,375.6,105.1z M397.7,730.5V430.3h133v300.2H397.7L397.7,730.5z"/></g>
</svg>