<?xml version="1.0" encoding="utf-8"?>
<!-- Svg Vector Icons : http://www.sfont.cn -->
<!DOCTYPE svg PUBLIC "-//W3C//DTD SVG 1.1//EN" "http://www.w3.org/Graphics/SVG/1.1/DTD/svg11.dtd">
<svg version="1.1" xmlns="http://www.w3.org/2000/svg" xmlns:xlink="http://www.w3.org/1999/xlink" x="0px" y="0px" viewBox="0 0 1000 1000" enable-background="new 0 0 1000 1000" xml:space="preserve">
<metadata> Svg Vector Icons : http://www.sfont.cn </metadata>
<g><g><g><path d="M975.5,902.2L948,735.6c-7.3-44.7-47.7-87.5-92-97.3l-185.5-41.6c25.7-33.6,46.4-72.8,61.9-112.2c27.4-9.5,55.1-33.5,63.4-65c11-42,0.5-79.5-25.5-96.1l0.8-60.2C772.8,118.4,663.7,11.9,511.5,10C359.4,8.2,247.8,111.9,246,256.7l-0.8,60.2c-26.3,15.8-37.9,53.3-27.8,95.5c7.5,31.9,34.9,56.6,62.1,66.8c14.2,39.6,33.7,79.4,58.3,113.5l-23,4.5c-19.1-56.5-72-97.7-134.9-97.7C101.1,499.5,37,563.6,37,642.4c0,27.4,8.2,52.9,21.7,74.7c-0.8,2.5-1.6,5-2.2,7.5L24.9,890.5c-4.4,23.2,0.8,45.5,14.8,62.6c14,17.1,34.7,26.7,58.4,27.1l802,9.9h1c23.5,0,44.1-9.2,58.3-25.9C973.6,947.3,979.3,925.3,975.5,902.2z M76.8,642.3c0-56.8,46.2-103,103-103c43.5,0,80.7,27.3,95.7,65.6c0.7,1.6,1,3.3,1.6,5.1c1.3,4,2.8,7.9,3.7,12.2c1.2,5.8,1.7,11.8,1.8,17.9c0,0.8,0.2,1.6,0.2,2.4c0,5.4-0.8,10.7-1.6,15.8c-7.7,49.2-50.1,87.3-101.5,87.3c-31.8,0-59.9-14.7-78.8-37.4c-4.1-4.9-7.7-10.2-10.8-15.8c-3.3-5.9-6-12.4-8.2-19.1C78.9,663.2,76.8,653,76.8,642.3z M321.7,632.2l41.7-8.3c27.4,29.5,59.8,52,96.8,62.3l-5.6,4.9l30.8,28.9l-23.6,93.3L321.8,650.3c0.2-2.6,0.8-5.3,0.8-7.9C322.8,638.8,322,635.6,321.7,632.2z M541.1,818.2L519,720.4l31.6-28.1l-5.3-5c37.2-9.3,70.1-30.9,98.5-59.8l54,12.1L541.1,818.2z M308.2,445.9c-14.6,2.9-47.8-15.7-54.1-42.4c-6.5-27.1,0.3-52.3,15.1-56.2c4.3-1,8.9-0.2,13.3,2.4l1.2-92.5C285.4,126.4,386.9,46.5,511,48c124.1,1.4,223.7,83.9,222,214.7l-1.1,92.5c4.5-2.4,9.1-3.2,13.4-2c14.6,4.2,20.8,29.7,13.7,56.5c-6.9,26.2-40.4,44-54.8,41c-14.9,43.5-40.5,95.7-75.4,136.6c-4.5,5.3-9.2,10.4-14.1,15.3c-5.2,5.3-10.7,10.1-16.2,14.7c-25.8,21.5-55.6,35.6-88.6,36.8c-2.2,0.1-4.2,0.4-6.5,0.4c-2.5,0-4.7-0.5-7.2-0.7c-33.3-2.3-62.5-16.9-87.8-39c-5.5-4.7-10.8-9.7-15.8-15.1c-4.7-5-9.2-10.2-13.6-15.7C345.8,543.1,322,490.5,308.2,445.9z M900.5,954.1l-155.1-2l1-84.1c0.2-9.9-7.8-18.1-17.7-18.1c-10.4-0.9-18.1,7.8-18.2,17.7l-1,84.1l-420.1-5.2l1-84.1c0.1-9.9-7.8-18-17.7-18.1c-9.3-0.2-18.1,7.8-18.2,17.7l-1,84.1l-155-1.9c-12.9-0.2-24-5.1-31.1-13.9c-7.2-8.7-9.7-20.5-7.3-33.2l27.8-146.3c24.9,21,56.7,34.3,91.9,34.3c60.4,0,111.9-37.7,132.7-90.6l177,205.9c3.4,4,8.3,6.2,13.6,6.3c0,0,0,0,0.1,0c5.2,0,10.1-2.3,13.5-6.1l221.1-252l110.5,24.7c30,6.7,59.4,37.9,64.3,68.1L940,908c2.1,12.6-0.8,24.2-8,32.7c-7.3,8.6-18.2,13.2-30.8,13.2v17.8L900.5,954.1z M120.3,662.2H96.7v-4.4v-15.5v-19.9H187h75.6h0.4v3.2v11.1v5.6v1.6v18.4h-92.6H120.3z"/></g></g><g></g><g></g><g></g><g></g><g></g><g></g><g></g><g></g><g></g><g></g><g></g><g></g><g></g><g></g><g></g></g>
</svg>