<svg xmlns="http://www.w3.org/2000/svg" viewBox="0 0 443.6 55.5"><defs><style>.cls-1,.cls-4,.cls-7{fill:#0068b7;}.cls-2{fill:#fff;}.cls-3{fill:#14a83b;}.cls-4{font-size:28px;letter-spacing:0.2em;}.cls-4,.cls-5,.cls-6,.cls-7{font-family:STYuanti-SC-Bold, Yuanti SC;font-weight:700;}.cls-5{font-size:18px;letter-spacing:0.1em;}.cls-5,.cls-6{fill:#5086a3;}.cls-6{font-size:8px;letter-spacing:0.02em;}.cls-7{font-size:13px;letter-spacing:0.12em;}</style></defs><title>资源 2</title><g id="图层_2" data-name="图层 2"><g id="图层_1-2" data-name="图层 1"><path class="cls-1" d="M55.5,27.49c0-6.36-6.85-11.59-15.7-12.38C38.84,6.55,33.7,0,27.49,0S15.9,6.85,15.11,15.7C6.55,16.66,0,21.8,0,28S6.85,39.6,15.7,40.39C16.66,49,21.8,55.5,28,55.5S39.6,48.65,40.39,39.8C49,38.84,55.5,33.7,55.5,27.49Z"/><path class="cls-2" d="M50.5,27.54c0-5.21-5.61-9.5-12.87-10.15-.78-7-5-12.39-10.09-12.39S18,10.61,17.39,17.87C10.37,18.65,5,22.87,5,28s5.61,9.5,12.87,10.15c.78,7,5,12.39,10.09,12.39s9.5-5.61,10.15-12.87C45.13,36.85,50.5,32.63,50.5,27.54Z"/><path class="cls-3" d="M45.25,27.59c0-4-5.35-6.28-10.93-6.78-.6-5.4-2.82-10.56-6.73-10.56s-6.28,5.35-6.78,10.93c-5.4.6-10.56,2.82-10.56,6.73s5.35,6.28,10.93,6.78c.6,5.4,2.82,10.56,6.73,10.56s6.28-5.35,6.78-10.93C40.09,33.72,45.25,31.5,45.25,27.59Z"/><text class="cls-4" transform="translate(67 28.51)">慈诚医疗</text><text class="cls-5" transform="translate(206 31.94)">北京医师协会专家会诊中心</text><text class="cls-6" transform="translate(206 46.94)">BEIJING MEDICAL DOCTOR ASSOCIATION CONSULTATION CENTER</text><text class="cls-7" transform="translate(67 47.44)">CICHENG MEDICAL</text></g></g></svg>